<svg width="128" height="128" viewBox="0 0 128 128" fill="none" xmlns="http://www.w3.org/2000/svg">
<path d="M14.985 27.7118C14.748 20.8968 20.057 14.6128 27.234 14.6128H100.774C107.951 14.6128 113.26 20.8968 113.023 27.7118C112.795 34.2578 113.091 42.7378 115.225 49.6518C117.366 56.5878 120.976 60.9708 126.889 61.5348V67.9218C120.976 68.4858 117.366 72.8688 115.225 79.8048C113.091 86.7188 112.795 95.1988 113.023 101.745C113.26 108.56 107.951 114.843 100.774 114.843H27.234C20.057 114.843 14.748 108.559 14.985 101.745C15.213 95.1988 14.917 86.7188 12.782 79.8048C10.642 72.8698 7.022 68.4858 1.109 67.9218V61.5348C7.022 60.9718 10.642 56.5878 12.782 49.6518C14.917 42.7378 15.212 34.2578 14.985 27.7118Z" fill="url(#paint0_linear_0_1)"/>
<g filter="url(#filter0_d_0_1)">
<path d="M67.1098 91.7364C78.7288 91.7364 85.7303 86.0474 85.7303 76.664C85.7303 69.571 80.7346 64.436 73.3166 63.6231V63.3276C78.7666 62.441 83.0433 57.3799 83.0433 51.7278C83.0433 43.6743 76.6851 38.4282 66.9963 38.4282H45.1964V91.7364H67.1098ZM53.6742 45.1888H64.9526C71.0838 45.1888 74.5656 47.9225 74.5656 52.8728C74.5656 58.1557 70.5161 61.111 63.1738 61.111H53.6742V45.1888ZM53.6742 84.9759V67.4281H64.8767C72.9002 67.4281 77.0634 70.3834 77.0634 76.1466C77.0634 81.9095 73.014 84.9759 65.3688 84.9759H53.6742Z" fill="url(#paint1_linear_0_1)"/>
</g>
<defs>
<filter id="filter0_d_0_1" x="41.2659" y="35.4803" width="48.395" height="61.1692" filterUnits="userSpaceOnUse" color-interpolation-filters="sRGB">
<feFlood flood-opacity="0" result="BackgroundImageFix"/>
<feColorMatrix in="SourceAlpha" type="matrix" values="0 0 0 0 0 0 0 0 0 0 0 0 0 0 0 0 0 0 127 0" result="hardAlpha"/>
<feOffset dy="0.98264"/>
<feGaussianBlur stdDeviation="1.96528"/>
<feColorMatrix type="matrix" values="0 0 0 0 0 0 0 0 0 0 0 0 0 0 0 0 0 0 0.15 0"/>
<feBlend mode="normal" in2="BackgroundImageFix" result="effect1_dropShadow_0_1"/>
<feBlend mode="normal" in="SourceGraphic" in2="effect1_dropShadow_0_1" result="shape"/>
</filter>
<linearGradient id="paint0_linear_0_1" x1="19.7996" y1="17.2654" x2="129.708" y2="104.512" gradientUnits="userSpaceOnUse">
<stop stop-color="#9013FE"/>
<stop offset="1" stop-color="#6610F2"/>
</linearGradient>
<linearGradient id="paint1_linear_0_1" x1="49.0317" y1="41.9362" x2="73.5977" y2="83.4847" gradientUnits="userSpaceOnUse">
<stop stop-color="white"/>
<stop offset="1" stop-color="#F1E5FC"/>
</linearGradient>
</defs>
</svg>
