<svg width="128" height="128" viewBox="0 0 128 128" fill="none" xmlns="http://www.w3.org/2000/svg">
<path d="M126.67 98.4402C122.11 99.6002 119.29 98.4902 116.76 94.6902C111.08 86.1802 104.81 78.0602 98.76 69.7902C97.98 68.7202 97.17 67.6702 96.16 66.3402C89 76.0002 81.85 85.2002 75.14 94.7702C72.74 98.1902 70.22 99.6802 65.74 98.4702L92.66 62.3402L67.6 29.7102C71.91 28.8702 74.89 29.3002 77.53 33.1602C83.36 41.6802 89.79 49.7902 96.2 58.3702C102.65 49.8202 109 41.7002 115 33.2602C117.41 29.8402 120 28.5402 124.33 29.8002C121.05 34.1502 117.84 38.4302 114.61 42.6802C110.25 48.4102 105.97 54.2102 101.45 59.8202C99.84 61.8202 100.1 63.1202 101.54 65.0102C109.9 76.0002 118.16 87.1002 126.67 98.4402ZM1.33 61.7402C2.05 58.1302 2.53 54.4502 3.53 50.9102C9.53 29.4802 34.13 20.5702 51.03 33.8502C60.93 41.6402 63.39 52.6202 62.9 65.0002H7.1C6.26 87.2102 22.25 100.62 42.63 93.7802C49.78 91.3802 53.99 85.7802 56.1 78.7802C57.17 75.2702 58.94 74.7202 62.24 75.7202C60.55 84.4802 56.72 91.8002 48.72 96.3802C36.72 103.24 19.59 101.02 10.58 91.4902C5.26 85.8902 3 78.9202 2 71.3902C1.85 70.1902 1.54 69.0102 1.3 67.8202C1.32 65.7935 1.33 63.7668 1.33 61.7402ZM7.2 60.2502H57.63C57.3 44.1902 47.3 32.7802 33.63 32.6802C18.63 32.5602 7.85 43.7002 7.2 60.2502Z" fill="black"/>
</svg>
