<svg width="128" height="128" viewBox="0 0 128 128" fill="none" xmlns="http://www.w3.org/2000/svg">
<path fill-rule="evenodd" clip-rule="evenodd" d="M64 5.10303C30.653 5.10303 3.612 32.138 3.612 65.491C3.612 92.173 20.915 114.808 44.909 122.794C47.926 123.354 49.034 121.484 49.034 119.889C49.034 118.449 48.978 113.692 48.952 108.646C32.152 112.299 28.607 101.521 28.607 101.521C25.86 94.541 21.902 92.685 21.902 92.685C16.422 88.937 22.315 89.015 22.315 89.015C28.378 89.44 31.572 95.238 31.572 95.238C36.958 104.468 45.699 101.8 49.145 100.258C49.687 96.355 51.252 93.69 52.979 92.182C39.566 90.657 25.465 85.478 25.465 62.339C25.465 55.746 27.825 50.359 31.688 46.129C31.06 44.609 28.993 38.467 32.272 30.149C32.272 30.149 37.342 28.526 48.882 36.339C53.7 35 58.867 34.327 64 34.304C69.13 34.327 74.3 34.998 79.127 36.337C90.653 28.524 95.717 30.147 95.717 30.147C99.004 38.464 96.937 44.607 96.31 46.127C100.182 50.357 102.525 55.744 102.525 62.337C102.525 85.531 88.398 90.637 74.951 92.133C77.118 94.007 79.048 97.683 79.048 103.316C79.048 111.396 78.978 117.899 78.978 119.888C78.978 121.495 80.066 123.378 83.126 122.785C107.106 114.791 124.389 92.163 124.389 65.491C124.388 32.14 97.35 5.10303 64 5.10303Z" fill="#181616"/>
<path d="M26.484 91.8059C26.351 92.1059 25.879 92.1959 25.449 91.9909C25.009 91.7949 24.764 91.3859 24.906 91.0849C25.036 90.7749 25.509 90.6899 25.946 90.8969C26.386 91.0939 26.636 91.5069 26.483 91.8069L26.484 91.8059ZM28.93 94.5349C28.643 94.8019 28.08 94.6779 27.698 94.2549C27.302 93.8349 27.228 93.2719 27.521 93.0009C27.819 92.7349 28.365 92.8609 28.761 93.2809C29.155 93.7069 29.233 94.2649 28.931 94.5359L28.93 94.5349ZM31.312 98.0119C30.942 98.2699 30.336 98.0289 29.962 97.4919C29.592 96.9539 29.592 96.3089 29.972 96.0519C30.345 95.7939 30.942 96.0269 31.322 96.5589C31.69 97.1039 31.69 97.7499 31.312 98.0119ZM34.573 101.373C34.243 101.738 33.537 101.64 33.021 101.143C32.494 100.656 32.347 99.9629 32.678 99.5989C33.014 99.2329 33.723 99.3349 34.242 99.8289C34.769 100.315 34.928 101.009 34.575 101.372L34.573 101.373ZM39.073 103.324C38.926 103.797 38.248 104.012 37.563 103.81C36.88 103.603 36.433 103.05 36.573 102.572C36.713 102.095 37.396 101.872 38.085 102.087C38.768 102.293 39.215 102.843 39.073 103.324ZM44.016 103.685C44.033 104.183 43.453 104.595 42.736 104.605C42.013 104.622 41.428 104.218 41.421 103.728C41.421 103.225 41.989 102.818 42.711 102.804C43.428 102.791 44.017 103.191 44.017 103.684L44.016 103.685ZM48.614 102.903C48.7 103.388 48.201 103.887 47.488 104.02C46.788 104.15 46.138 103.848 46.048 103.367C45.962 102.869 46.47 102.37 47.17 102.241C47.884 102.118 48.524 102.41 48.614 102.903Z" fill="#181616"/>
</svg>
