<svg width="128" height="128" viewBox="0 0 128 128" fill="none" xmlns="http://www.w3.org/2000/svg">
<path d="M9.625 32.1811C-1.404 48.0321 -0.0310035 68.6571 8.394 85.5011C8.594 85.9051 8.804 86.3021 9.011 86.6991L9.405 87.4581L9.651 87.8951L10.09 88.6811C10.352 89.1421 10.62 89.6011 10.894 90.0601L11.353 90.8161C11.657 91.3071 11.968 91.7921 12.286 92.2761L12.684 92.8901C13.123 93.5451 13.572 94.1991 14.036 94.8411L14.075 94.8911L14.303 95.1991C14.704 95.7521 15.117 96.2981 15.535 96.8381L15.999 97.4281C16.372 97.8971 16.751 98.3631 17.137 98.8271L17.572 99.3471C18.091 99.9595 18.6197 100.564 19.158 101.159L19.191 101.192L19.252 101.26C19.7811 101.834 20.3184 102.401 20.864 102.959L21.381 103.48C21.804 103.906 22.234 104.325 22.668 104.742L23.195 105.242C23.775 105.789 24.361 106.325 24.959 106.849L24.987 106.871L25.294 107.133C25.821 107.589 26.357 108.042 26.897 108.486L27.561 109.015C28.002 109.369 28.448 109.717 28.897 110.059L29.611 110.602C30.107 110.967 30.606 111.326 31.11 111.677L31.656 112.064L31.806 112.171C32.284 112.5 32.773 112.817 33.262 113.134L33.892 113.554C34.642 114.028 35.402 114.497 36.171 114.95L36.801 115.305C37.366 115.631 37.935 115.951 38.511 116.264C38.823 116.432 39.143 116.591 39.457 116.752C39.864 116.965 40.268 117.181 40.682 117.388L40.965 117.525L41.466 117.767C42.107 118.073 42.753 118.374 43.406 118.664L43.816 118.848C44.5645 119.176 45.319 119.489 46.079 119.789L46.63 120.006C47.334 120.277 48.048 120.545 48.765 120.797L49.033 120.89C49.82 121.165 50.614 121.42 51.414 121.669L51.989 121.841C52.803 122.086 53.608 122.379 54.447 122.534C107.786 132.261 123.28 90.4811 123.28 90.4811C110.267 107.434 87.169 111.906 65.284 106.927C64.455 106.74 63.651 106.481 62.842 106.242L62.233 106.057C61.4447 105.815 60.6606 105.56 59.881 105.292L59.558 105.175C58.8628 104.929 58.1714 104.673 57.484 104.406L56.902 104.177C56.15 103.88 55.402 103.57 54.663 103.246L54.216 103.048C53.5831 102.762 52.9534 102.469 52.327 102.169L51.781 101.907C51.29 101.668 50.804 101.414 50.32 101.164C49.996 100.993 49.666 100.832 49.345 100.654C48.7558 100.337 48.172 100.009 47.594 99.6721L47.003 99.3421C46.2354 98.8889 45.4753 98.4232 44.723 97.9451L44.108 97.5351C43.5611 97.1843 43.02 96.8246 42.485 96.4561L41.963 96.0891C41.4478 95.7248 40.9364 95.3551 40.429 94.9801L39.75 94.4661C39.2838 94.1117 38.8224 93.751 38.366 93.3841L37.749 92.8891C37.1678 92.4126 36.593 91.9282 36.025 91.4361L35.836 91.2771C35.224 90.737 34.6199 90.1879 34.024 89.6301L33.513 89.1391C33.072 88.7191 32.638 88.2961 32.211 87.8621L31.701 87.3531C31.1591 86.7986 30.6263 86.2351 30.103 85.6631L30.024 85.5791C29.4725 84.9743 28.9321 84.3595 28.403 83.7351L27.979 83.2311C27.5837 82.7555 27.1947 82.2748 26.812 81.7891L26.385 81.2571C25.9275 80.6655 25.4784 80.0675 25.038 79.4631C12.888 62.8891 8.522 40.0311 18.233 21.2591M43.862 18.8251C35.885 30.3031 36.319 45.6691 42.541 57.8081C43.5823 59.8487 44.761 61.8162 46.069 63.6971C47.264 65.4101 48.589 67.4481 50.175 68.8241C50.7549 69.4593 51.3518 70.0788 51.965 70.6821L52.437 71.1471C53.0326 71.7277 53.6421 72.2939 54.265 72.8451L54.339 72.9091L54.357 72.9271C55.0538 73.5338 55.7657 74.123 56.492 74.6941L56.977 75.0721C57.7073 75.6347 58.4519 76.1785 59.21 76.7031L59.275 76.7521C59.611 76.9841 59.953 77.2001 60.294 77.4241L60.777 77.7431C61.321 78.0921 61.872 78.4321 62.432 78.7581L62.667 78.8941C63.15 79.1721 63.639 79.4461 64.13 79.7121L64.651 79.9831C64.99 80.1601 65.329 80.3411 65.674 80.5131L65.829 80.5831C66.532 80.9291 67.241 81.2631 67.965 81.5781L68.437 81.7721C69.016 82.0181 69.601 82.2581 70.187 82.4821L70.937 82.7571C71.47 82.9551 72.005 83.1351 72.544 83.3161L73.271 83.5491C74.038 83.7871 74.796 84.0881 75.595 84.2211C116.778 91.0441 126.286 59.3351 126.286 59.3351C117.716 71.6781 101.118 77.5681 83.407 72.9701C82.624 72.7642 81.8461 72.5394 81.074 72.2961L80.373 72.0691C79.8258 71.8921 79.2821 71.7047 78.742 71.5071L78.006 71.2331C77.4167 71.0069 76.8313 70.7709 76.25 70.5251L75.777 70.3251C75.0528 70.0099 74.3366 69.6768 73.629 69.3261C73.266 69.1491 72.909 68.9621 72.551 68.7781L71.929 68.4581C71.4702 68.2094 71.0158 67.9527 70.566 67.6881L70.24 67.5031C69.6829 67.1782 69.1325 66.8422 68.589 66.4951L68.091 66.1631C67.7322 65.9311 67.3759 65.6954 67.022 65.4561C66.2671 64.9313 65.5249 64.3885 64.796 63.8281L64.295 63.4331C56.543 57.3131 50.397 48.9471 47.476 39.4621C44.414 29.6261 45.074 18.5841 50.379 9.62207M72.657 8.84707C67.955 15.7671 67.493 24.3611 70.756 32.0031C74.197 40.1161 81.247 46.4791 89.476 49.4981C89.815 49.6231 90.155 49.7351 90.498 49.8521L90.949 49.9951C91.434 50.1471 91.915 50.3241 92.416 50.4191C115.156 54.8131 121.324 38.7501 122.965 36.3851C117.563 44.1641 108.483 46.0311 97.342 43.3271C96.462 43.1141 95.495 42.7961 94.647 42.4951C93.5576 42.108 92.4892 41.6644 91.446 41.1661C89.4667 40.2131 87.5868 39.0662 85.834 37.7421C75.865 30.1771 69.672 15.7481 76.177 3.99707" fill="#0868AC"/>
</svg>
