<svg width="140" height="85" viewBox="0 0 128 128" fill="none" xmlns="http://www.w3.org/2000/svg">
<g clip-path="url(#clip0_0_1)">
<path d="M117.688 98.2418C110.715 98.0508 105.391 98.7028 100.836 100.621C99.543 101.168 97.481 101.18 97.27 102.801C97.981 103.547 98.09 104.66 98.657 105.578C99.743 107.332 101.579 109.691 103.216 110.93C105.005 112.278 106.849 113.723 108.767 114.891C112.181 116.973 115.99 118.161 119.271 120.243C121.209 121.473 123.13 123.02 125.021 124.407C125.955 125.091 126.584 126.157 127.794 126.587V126.392C127.157 125.58 126.993 124.462 126.407 123.615L123.829 121.037C121.309 117.693 118.11 114.756 114.712 112.318C112.001 110.369 105.931 107.74 104.802 104.588L104.603 104.389C106.525 104.17 108.775 103.475 110.552 102.998C113.532 102.201 116.197 102.408 119.271 101.611L123.435 100.424V99.6308C121.88 98.0368 120.771 95.9238 119.076 94.4788C114.635 90.6978 109.791 86.9238 104.803 83.7758C102.037 82.0298 98.619 80.8928 95.686 79.4128C94.698 78.9168 92.967 78.6548 92.315 77.8268C90.776 75.8658 89.936 73.3778 88.749 71.0888C86.261 66.2958 83.819 61.0658 81.612 56.0228C80.108 52.5858 79.128 49.1948 77.253 46.1128C68.253 31.3158 58.566 22.3828 43.558 13.6048C40.363 11.7378 36.519 10.9998 32.456 10.0348L25.913 9.63984C24.581 9.08484 23.198 7.45584 21.948 6.66284C16.977 3.51984 4.223 -3.31216 0.538997 5.67184C-1.785 11.3398 4.016 16.8708 6.09 19.7458C7.547 21.7578 9.41 24.0188 10.449 26.2848C11.137 27.7768 11.254 29.2688 11.84 30.8438C13.278 34.7268 14.535 38.9528 16.399 42.5388C17.34 44.3548 18.379 46.2658 19.571 47.8908C20.298 48.8868 21.551 49.3288 21.751 50.8638C20.524 52.5788 20.454 55.2388 19.767 57.4068C16.669 67.1768 17.841 79.3168 22.345 86.5438C23.728 88.7668 26.986 93.5238 31.462 91.6998C35.38 90.1018 34.505 85.1608 35.626 80.7978C35.88 79.8098 35.724 79.0828 36.22 78.4188V78.6178L39.79 85.7508C42.431 90.0048 47.114 94.4498 51.087 97.4498C53.146 99.0048 54.767 101.692 57.431 102.602V102.403H57.232C56.716 101.598 55.908 101.266 55.252 100.622C53.701 99.0988 51.975 97.2078 50.693 95.4658C47.08 90.5638 43.888 85.1958 40.982 79.6108C39.591 76.9428 38.384 74.0018 37.212 71.2868C36.759 70.2398 36.767 68.6538 35.825 68.1148C34.544 70.1028 32.653 71.7128 31.661 74.0598C30.079 77.8138 29.872 82.3958 29.286 87.1418C28.938 87.2668 29.091 87.1808 28.888 87.3408C26.126 86.6728 25.158 83.8328 24.13 81.3918C21.536 75.2278 21.052 65.3018 23.337 58.2008C23.927 56.3648 26.599 50.5838 25.517 48.8848C25.001 47.1938 23.298 46.2128 22.345 44.9198C21.165 43.3218 19.99 41.2168 19.173 39.3688C17.048 34.5638 16.06 29.1658 13.821 24.3068C12.751 21.9828 10.946 19.6308 9.462 17.5688C7.817 15.2798 5.978 13.5918 4.704 10.8268C4.251 9.84284 3.638 8.26784 4.306 7.26084C4.521 6.57684 4.822 6.29184 5.497 6.06984C6.645 5.18284 9.849 6.36684 11.044 6.86284C14.224 8.18284 16.876 9.44084 19.571 11.2258C20.86 12.0808 22.169 13.7378 23.731 14.1988H25.516C28.305 14.8398 31.43 14.3938 34.039 15.1868C38.648 16.5888 42.777 18.7688 46.527 21.1358C57.949 28.3508 67.293 38.6158 73.683 50.8698C74.71 52.8428 75.156 54.7218 76.062 56.8148C77.886 61.0338 80.187 65.3738 82.003 69.5028C83.819 73.6158 85.585 77.7728 88.151 81.1978C89.499 82.9988 94.702 83.9638 97.069 84.9638C98.729 85.6628 101.448 86.3938 103.018 87.3428C106.018 89.1518 108.924 91.3078 111.741 93.2878C113.143 94.2798 117.471 96.4558 117.686 98.2448L117.688 98.2418ZM29.083 22.7218C27.63 22.6948 26.603 22.8778 25.517 23.1168V23.3158H25.712C26.407 24.7378 27.63 25.6558 28.489 26.8818L30.469 31.0458L30.668 30.8508C31.895 29.9838 32.457 28.6008 32.449 26.4878C31.957 25.9678 31.887 25.3238 31.457 24.7028C30.895 23.8788 29.797 23.4138 29.082 22.7228L29.083 22.7218Z" fill="#00618A"/>
</g>
<defs>
<clipPath id="clip0_0_1">
<rect width="128" height="128" fill="white"/>
</clipPath>
</defs>
</svg>
