<svg width="80" height="128" viewBox="0 0 128 128" fill="none" xmlns="http://www.w3.org/2000/svg">
<g clip-path="url(#clip0_0_1)">
<mask id="mask0_0_1" style="mask-type:alpha" maskUnits="userSpaceOnUse" x="-1" y="0" width="129" height="128">
<path fill-rule="evenodd" clip-rule="evenodd" d="M90.767 127.126C91.7856 127.523 92.8749 127.707 93.9674 127.665C95.0598 127.623 96.1319 127.356 97.117 126.882L123.47 114.201C124.827 113.548 125.972 112.525 126.774 111.249C127.575 109.974 128 108.498 128 106.992V21.0091C128 19.5028 127.575 18.0269 126.774 16.7514C125.973 15.4759 124.827 14.4525 123.47 13.7991L97.117 1.12014C95.6279 0.403648 93.9529 0.167744 92.3238 0.44508C90.6947 0.722416 89.1921 1.49928 88.024 2.66814L37.574 48.6941L15.6 32.0131C14.6088 31.2605 13.3853 30.8786 12.1419 30.9338C10.8985 30.989 9.7137 31.4777 8.793 32.3151L1.745 38.7261C1.19575 39.2257 0.756813 39.8344 0.456274 40.5133C0.155734 41.1922 0.000207707 41.9264 -0.000357038 42.6688C-0.000921783 43.4113 0.153488 44.1457 0.452994 44.825C0.7525 45.5044 1.19051 46.1137 1.739 46.6141L20.796 64.0001L1.74 81.3871C1.19181 81.8876 0.754061 82.4969 0.454741 83.1762C0.155421 83.8555 0.00111168 84.5897 0.00167637 85.332C0.00224106 86.0743 0.157667 86.8082 0.458021 87.487C0.758374 88.1658 1.19705 88.7745 1.746 89.2741L8.794 95.6851C9.71449 96.5229 10.8993 97.0119 12.1427 97.0673C13.3862 97.1226 14.6097 96.7408 15.601 95.9881L37.575 79.3081L88.025 125.333C88.8051 126.115 89.7382 126.725 90.767 127.126ZM96.019 34.9431L57.74 64.0001L96.02 93.0581L96.019 34.9431Z" fill="white"/>
</mask>
<g mask="url(#mask0_0_1)">
<path d="M123.471 13.8198L97.097 1.11984C95.6073 0.40287 93.9316 0.166711 92.3018 0.444049C90.672 0.721387 89.1687 1.49851 88 2.66784L1.662 81.3868C1.1134 81.8871 0.675279 82.4963 0.375694 83.1756C0.0761088 83.8549 -0.0783449 84.5892 -0.0777801 85.3317C-0.0772153 86.0741 0.0783555 86.8082 0.378974 87.487C0.679592 88.1659 1.11864 88.7745 1.668 89.2738L8.72 95.6848C9.64132 96.5226 10.8267 97.0115 12.0708 97.0668C13.3148 97.1222 14.5389 96.7405 15.531 95.9878L119.502 17.1128C122.99 14.4668 128 16.9548 128 21.3328V21.0268C128 19.5209 127.575 18.0456 126.774 16.7705C125.972 15.4954 124.828 14.4733 123.471 13.8198Z" fill="#0065A9"/>
<g filter="url(#filter0_d_0_1)">
<path d="M123.471 114.181L97.097 126.879C95.6075 127.596 93.9319 127.833 92.3021 127.556C90.6723 127.279 89.1689 126.502 88 125.333L1.662 46.613C1.1134 46.1128 0.675279 45.5035 0.375694 44.8242C0.0761088 44.145 -0.0783449 43.4106 -0.0777801 42.6682C-0.0772153 41.9258 0.0783555 41.1916 0.378974 40.5128C0.679592 39.834 1.11864 39.2254 1.668 38.726L8.72 32.315C9.64132 31.4773 10.8267 30.9883 12.0708 30.933C13.3148 30.8777 14.5389 31.2594 15.531 32.012L119.502 110.886C122.99 113.533 128 111.045 128 106.667V106.973C128 108.479 127.575 109.954 126.774 111.229C125.972 112.504 124.828 113.528 123.471 114.181Z" fill="#007ACC"/>
</g>
<g filter="url(#filter1_d_0_1)">
<path d="M97.098 126.882C95.608 127.599 93.9321 127.834 92.3022 127.557C90.6724 127.279 89.169 126.502 88 125.333C90.952 128.285 96 126.194 96 122.019V5.98003C96 1.80503 90.952 -0.285972 88 2.66703C89.169 1.49783 90.6724 0.720747 92.3022 0.443247C93.9321 0.165748 95.608 0.401545 97.098 1.11803L123.467 13.8C124.825 14.453 125.971 15.4761 126.773 16.7517C127.575 18.0272 128 19.5033 128 21.01V106.992C128 108.499 127.575 109.975 126.773 111.25C125.971 112.526 124.825 113.549 123.467 114.202L97.098 126.882Z" fill="#1F9CF0"/>
</g>
<path style="mix-blend-mode:overlay" opacity="0.25" fill-rule="evenodd" clip-rule="evenodd" d="M90.69 127.126C91.7084 127.523 92.7976 127.706 93.8899 127.664C94.9821 127.622 96.0541 127.356 97.039 126.882L123.392 114.201C124.749 113.548 125.895 112.524 126.696 111.249C127.497 109.973 127.922 108.498 127.922 106.991V21.0091C127.922 19.5028 127.497 18.0269 126.696 16.7514C125.895 15.4759 124.749 14.4525 123.392 13.7991L97.039 1.12014C95.5499 0.403648 93.8749 0.167744 92.2458 0.44508C90.6167 0.722416 89.1141 1.49928 87.946 2.66814L37.496 48.6941L15.522 32.0141C14.5308 31.2615 13.3073 30.8796 12.0639 30.9348C10.8205 30.99 9.63571 31.4787 8.715 32.3161L1.667 38.7271C1.11789 39.2268 0.679074 39.8355 0.378623 40.5144C0.0781715 41.1933 -0.077307 41.9274 -0.0778717 42.6698C-0.0784364 43.4122 0.0759251 44.1466 0.375343 44.8259C0.674761 45.5053 1.11265 46.1147 1.661 46.6151L20.718 64.0001L1.662 81.3861C1.11351 81.8865 0.675501 82.4959 0.375995 83.1753C0.0764883 83.8546 -0.0779212 84.589 -0.0773565 85.3315C-0.0767918 86.0739 0.0787349 86.8081 0.379274 87.487C0.679814 88.1659 1.11875 88.7746 1.668 89.2741L8.716 95.6851C9.63658 96.5227 10.8214 97.0116 12.0647 97.067C13.3081 97.1223 14.5316 96.7406 15.523 95.9881L37.498 79.3071L87.948 125.333C88.7278 126.114 89.6616 126.725 90.69 127.126ZM95.942 34.9421L57.662 64.0001L95.942 93.0571V34.9421Z" fill="url(#paint0_linear_0_1)"/>
</g>
</g>
<defs>
<filter id="filter0_d_0_1" x="-8.41112" y="22.5944" width="144.744" height="113.407" filterUnits="userSpaceOnUse" color-interpolation-filters="sRGB">
<feFlood flood-opacity="0" result="BackgroundImageFix"/>
<feColorMatrix in="SourceAlpha" type="matrix" values="0 0 0 0 0 0 0 0 0 0 0 0 0 0 0 0 0 0 127 0" result="hardAlpha"/>
<feOffset/>
<feGaussianBlur stdDeviation="4.16667"/>
<feColorMatrix type="matrix" values="0 0 0 0 0 0 0 0 0 0 0 0 0 0 0 0 0 0 0.25 0"/>
<feBlend mode="overlay" in2="BackgroundImageFix" result="effect1_dropShadow_0_1"/>
<feBlend mode="normal" in="SourceGraphic" in2="effect1_dropShadow_0_1" result="shape"/>
</filter>
<filter id="filter1_d_0_1" x="79.6667" y="-8.00326" width="56.6667" height="144.007" filterUnits="userSpaceOnUse" color-interpolation-filters="sRGB">
<feFlood flood-opacity="0" result="BackgroundImageFix"/>
<feColorMatrix in="SourceAlpha" type="matrix" values="0 0 0 0 0 0 0 0 0 0 0 0 0 0 0 0 0 0 127 0" result="hardAlpha"/>
<feOffset/>
<feGaussianBlur stdDeviation="4.16667"/>
<feColorMatrix type="matrix" values="0 0 0 0 0 0 0 0 0 0 0 0 0 0 0 0 0 0 0.25 0"/>
<feBlend mode="overlay" in2="BackgroundImageFix" result="effect1_dropShadow_0_1"/>
<feBlend mode="normal" in="SourceGraphic" in2="effect1_dropShadow_0_1" result="shape"/>
</filter>
<linearGradient id="paint0_linear_0_1" x1="63.9222" y1="0.330044" x2="63.9222" y2="127.67" gradientUnits="userSpaceOnUse">
<stop stop-color="white"/>
<stop offset="1" stop-color="white" stop-opacity="0"/>
</linearGradient>
<clipPath id="clip0_0_1">
<rect width="128" height="128" fill="white"/>
</clipPath>
</defs>
</svg>
